Coordinates
version=1
nRows=26
nColumns=28
inDegrees=yes

Units are S.I. units (second, meters, Newtons, ...)
If the header above contains a line with 'inDegrees', this indicates whether rotational values are in degrees (yes) or radians (no).

endheader
time	pelvis_tilt	pelvis_list	pelvis_rotation	pelvis_tx	pelvis_ty	pelvis_tz	hip_flexion_r	hip_adduction_r	hip_rotation_r	knee_angle_r	knee_angle_r_ie	knee_angle_r_vv	ankle_angle_r	subtalar_angle_r	mtp_angle_r	hip_flexion_l	hip_adduction_l	hip_rotation_l	knee_angle_l	knee_angle_l_ie	knee_angle_l_vv	ankle_angle_l	subtalar_angle_l	mtp_angle_l	lumbar_extension	lumbar_bending	lumbar_rotation
23.86	6.58434239	-4.61890638	-4.25245122000001	-0.09377592	1.19998797	0.3450417	10.39674614	-2.1551974	-1.5765249	0.13904563	-10.18732418	-0.18467512	-10.7212236	1.43363629	0	-16.2475734	-0.19135711	3.62311696	2.6645584	18.39668722	-4.96509679	13.50500224	-2.91116806	0	-11.86727677	0.247715	-8.02258486
23.865	6.58473957	-4.6211437	-4.24141062000001	-0.09277089	1.19985049	0.34499861	10.36387264	-2.1662145	-1.50040093	0.09541807	-10.12837159	-0.18915453	-10.73789358	1.47363785	0	-16.28936389	-0.18293492	3.66165963	2.61383301	18.37815976	-4.9544666	13.52908508	-2.91812672	0	-11.81571782	0.26010358	-8.01509908
23.87	6.58075015	-4.62007587	-4.26085251000001	-0.09172535	1.19969322	0.34498816	10.3351205	-2.17342295	-1.41589536	0.04907053	-10.0316356	-0.2018226	-10.76530268	1.53505285	0	-16.3382291	-0.16496018	3.68065393	2.57253429	18.37913053	-4.95700058	13.60596507	-2.94881348	0	-11.75935709	0.26635661	-7.98938569
23.875	6.57936395	-4.61097049	-4.2753487	-0.09070764	1.19954539	0.34499736	10.31004883	-2.17990575	-1.36831061	-0.01027032	-9.95471257	-0.22417858	-10.80059606	1.61296208	0	-16.38074847	-0.1381258	3.69181301	2.52632892	18.37100602	-4.95122138	13.72195971	-2.99595563	0	-11.71396152	0.2516204	-7.92975703
23.88	6.57394149	-4.60828396	-4.29191928	-0.08968434	1.19940417	0.34501032	10.28862927	-2.1760183	-1.35938134	-0.06364015	-9.89176233	-0.24611963	-10.83550627	1.70146602	0	-16.42011034	-0.1161637	3.69054328	2.47382691	18.3423869	-4.93906846	13.83731056	-3.03855947	0	-11.66162734	0.23263212	-7.84994809
23.885	6.54695024	-4.60246318	-4.33639925	-0.08866378	1.19923704	0.34503644	10.2577305	-2.17097031	-1.44167281	-0.05276802	-9.67729543	-0.26338356	-10.91718337	1.75928514	0	-16.43724721	-0.08635543	3.68346285	2.42241112	18.33701858	-4.93311564	13.91629667	-3.07170824	0	-11.5831137	0.22452792	-7.77270731
23.89	6.5422364	-4.60371644	-4.34121094	-0.08762133	1.1990864	0.34502998	10.22145183	-2.16297472	-1.43406463	-0.09479213	-9.66766541	-0.26938916	-10.92770222	1.76321471	0	-16.47586349	-0.07251127	3.70521935	2.36981799	18.33278218	-4.92108193	13.92318963	-3.07659666	0	-11.53458821	0.23118131	-7.7658008
23.895	6.53345509	-4.60201619	-4.36088638000001	-0.08655296	1.19891105	0.3450434	10.17549864	-2.15593252	-1.43999438	-0.11390748	-9.53992038	-0.29128641	-11.00194709	1.79652362	0	-16.52287825	-0.05823031	3.75126859	2.31697417	18.38630153	-4.94297209	14.0822264	-3.12578159	0	-11.48104425	0.22732202	-7.68629756
23.9	6.52783237	-4.59905123	-4.35929462999999	-0.08547425	1.19877308	0.34503388	10.12269894	-2.1607172	-1.43324078	-0.14282672	-9.49872809	-0.28506167	-11.03815539	1.7986409	0	-16.56643245	-0.04417902	3.77884573	2.26903006	18.38859547	-4.94328836	14.14720229	-3.13567992	0	-11.42231346	0.23363665	-7.64280383
23.905	6.51900682	-4.5941914	-4.38461642999999	-0.0843976	1.19862151	0.34509741	10.07857236	-2.14385038	-1.41565291	-0.16826194	-9.44906948	-0.3127354	-11.08684971	1.7842213	0	-16.6131124	-0.02913556	3.80538839	2.22576245	18.3755437	-4.94266793	14.25914757	-3.16132828	0	-11.37054539	0.21529049	-7.58274657
23.91	6.51070136	-4.59513228	-4.40408013000001	-0.08330824	1.19846294	0.34510144	10.02994999	-2.13172783	-1.40352273	-0.1951617	-9.41893315	-0.31791321	-11.12208343	1.75447048	0	-16.65892259	-0.00830812	3.82539977	2.18346232	18.37127533	-4.92797817	14.35301435	-3.18961196	0	-11.31863943	0.2232333	-7.52087827
23.915	6.49943556	-4.5930088	-4.42142519000001	-0.08223987	1.19830229	0.34514334	9.99146567	-2.11194671	-1.40231853	-0.23478474	-9.42349956	-0.33337082	-11.12808494	1.74828871	0	-16.6985029	0.00985031	3.84374388	2.13623758	18.37034156	-4.91230735	14.3607261	-3.19363895	0	-11.27427695	0.22256317	-7.51555953
23.92	6.49280311	-4.59222056	-4.44770736999999	-0.08114112	1.1981359	0.34519277	9.93990878	-2.09415127	-1.36833774	-0.27223808	-9.38607135	-0.34689698	-11.15250756	1.66849952	0	-16.7525134	0.02612472	3.8604644	2.09670776	18.37199051	-4.9128822	14.54581619	-3.23412815	0	-11.22564774	0.21294891	-7.40207267
23.925	6.4804688	-4.58662857	-4.46132243	-0.08004271	1.19796312	0.34524884	9.89784664	-2.07693673	-1.36182211	-0.30893641	-9.38803974	-0.3636869	-11.1553339	1.66042405	0	-16.79428969	0.04476459	3.87601637	2.05123882	18.37033542	-4.89832882	14.55208592	-3.2359281	0	-11.17505913	0.21385545	-7.39761289
23.93	6.47298062	-4.57909189	-4.49425048000001	-0.07891646	1.19778563	0.34531477	9.8458224	-2.06422972	-1.2968868	-0.35600964	-9.33791326	-0.37135935	-11.12605452	1.52433414	0	-16.85044934	0.07094191	3.8814645	2.01763694	18.35413075	-4.89019621	14.73557507	-3.26148308	0	-11.12395365	0.19899464	-7.29495772
23.935	6.45215173	-4.58635045	-4.52978762000001	-0.07776464	1.19760378	0.34542935	9.80527916	-2.0255248	-1.22446559	-0.39609495	-9.31930328	-0.38262018	-11.12351293	1.36688934	0	-16.89460651	0.07800368	3.8430651	1.97882097	18.31504578	-4.88126278	14.83248353	-3.24456921	0	-11.05653079	0.2060587	-7.22275324
23.94	6.4392965	-4.580271	-4.54470420000001	-0.07663324	1.1974336	0.34548589	9.76071905	-2.0085061	-1.22113372	-0.4389519	-9.32344497	-0.3952542	-11.12746419	1.35984925	0	-16.93380186	0.09809744	3.8612518	1.93233692	18.3120297	-4.86564197	14.83741735	-3.24752382	0	-11.00680728	0.2064329	-7.22000712
23.945	6.42922367	-4.56036288	-4.54972975999999	-0.07549131	1.19722325	0.34558029	9.71818306	-2.00739204	-1.11859919	-0.50848417	-9.37901668	-0.39570872	-11.07324729	1.23778828	0	-16.97785843	0.12363705	3.88140851	1.88371047	18.26274808	-4.85976488	15.00502148	-3.294617	0	-10.95242154	0.18481127	-7.16786974
23.95	6.41506227	-4.55163358	-4.55917675000001	-0.07434802	1.19703606	0.34566297	9.67380291	-1.98729582	-1.11276121	-0.55728638	-9.38326003	-0.41191397	-11.07778937	1.22955384	0	-17.01657375	0.14274955	3.89078308	1.84012281	18.25852119	-4.84513667	15.01158341	-3.29839207	0	-10.90113418	0.1819783	-7.16530619
23.955	6.38919405	-4.53386449	-4.58414314000001	-0.07317682	1.19681976	0.34578457	9.6353643	-1.97437249	-1.05237866	-0.59431639	-9.36529586	-0.42633541	-11.06125166	1.13760354	0	-17.04729315	0.1693763	3.86136763	1.78907393	18.18037869	-4.84761436	15.17839811	-3.34747794	0	-10.82112289	0.15344663	-7.11694656
23.96	6.45393726	-4.46509394	-4.65103377	-0.07186904	1.19673706	0.34568012	9.50115537	-2.06438616	-0.98859552	-0.64293188	-9.31124749	-0.3867138	-11.08639593	1.04721142	0	-17.1977132	0.33575368	3.77600175	1.79358869	18.10046989	-4.75349809	15.23494527	-3.35890833	0	-10.84330949	0.10270871	-7.05115869
23.965	6.37676942	-4.53667295	-4.59532278	-0.07088496	1.19642901	0.3459435	9.51718917	-1.92791262	-1.01115194	-0.68025337	-9.37571073	-0.41520592	-11.11322277	0.95107903	0	-17.1330143	0.19100177	3.81491343	1.67239379	18.06756532	-4.82366911	15.34813241	-3.39777556	0	-10.75058186	0.1623811	-7.03418742
23.97	6.41396849	-4.45391547	-4.65358187000001	-0.06954843	1.19630348	0.34586546	9.40144171	-2.02778226	-0.97868329	-0.69824852	-9.33472472	-0.3783064	-11.1688741	0.91458307	0	-17.24691513	0.35821065	3.77632	1.65809569	18.00868904	-4.74512877	15.42644198	-3.42732026	0	-10.73187627	0.10513735	-7.02458727
23.975	6.33721478	-4.50433552	-4.58980378999999	-0.06857493	1.19598702	0.346098	9.41811373	-1.91767804	-1.01022628	-0.73377294	-9.39404019	-0.40874309	-11.23037423	0.83485634	0	-17.17535862	0.2418928	3.80505319	1.53478576	17.93627749	-4.79994709	15.55764086	-3.47219578	0	-10.64163107	0.14802744	-7.02562713
23.98	6.3716983	-4.43008997	-4.65886957000001	-0.067221	1.19584462	0.3460481	9.30218938	-2.00499738	-0.96413308	-0.74152727	-9.34443138	-0.37458	-11.31401488	0.80836095	0	-17.29060305	0.40341676	3.7389641	1.52281122	17.87879593	-4.71975999	15.63229549	-3.49828007	0	-10.62492355	0.09937062	-7.00981687
23.985	6.36950795	-4.43151082	-4.65100969	-0.0660336	1.1956341	0.34614345	9.21844635	-1.98246777	-0.95171059	-0.73962795	-9.36668917	-0.36315036	-11.3975404	0.73217306	0	-17.33258569	0.40764304	3.6970783	1.44020234	17.78929424	-4.71601499	15.75735479	-3.52708405	0	-10.59683378	0.10014857	-6.97650771
